<svg width="42" height="42" viewBox="0 0 42 42" fill="none" xmlns="http://www.w3.org/2000/svg">
<rect x="0.0810547" width="41.8378" height="41.8378" rx="5" fill="#8F8F8F"/>
<path fill-rule="evenodd" clip-rule="evenodd" d="M10.5405 20.9189C10.5405 16.7408 10.5405 14.6517 11.5361 13.147C11.9807 12.4751 12.5562 11.8997 13.2281 11.4551C14.7328 10.4595 16.8219 10.4595 21 10.4595C25.1781 10.4595 27.2672 10.4595 28.7719 11.4551C29.4438 11.8997 30.0192 12.4751 30.4638 13.147C31.4594 14.6517 31.4594 16.7408 31.4594 20.9189C31.4594 25.0971 31.4594 27.1861 30.4638 28.6908C30.0192 29.3627 29.4438 29.9382 28.7719 30.3828C27.2672 31.3784 25.1781 31.3784 21 31.3784C16.8219 31.3784 14.7328 31.3784 13.2281 30.3828C12.5562 29.9382 11.9807 29.3627 11.5361 28.6908C10.5405 27.1861 10.5405 25.0971 10.5405 20.9189ZM26.4148 20.9192C26.4148 23.9098 23.9904 26.3342 20.9998 26.3342C18.0092 26.3342 15.5848 23.9098 15.5848 20.9192C15.5848 17.9286 18.0092 15.5042 20.9998 15.5042C23.9904 15.5042 26.4148 17.9286 26.4148 20.9192ZM20.9998 24.5021C22.9786 24.5021 24.5828 22.898 24.5828 20.9192C24.5828 18.9404 22.9786 17.3362 20.9998 17.3362C19.021 17.3362 17.4169 18.9404 17.4169 20.9192C17.4169 22.898 19.021 24.5021 20.9998 24.5021ZM26.6287 16.5045C27.3314 16.5045 27.901 15.9349 27.901 15.2322C27.901 14.5294 27.3314 13.9598 26.6287 13.9598C25.926 13.9598 25.3563 14.5294 25.3563 15.2322C25.3563 15.9349 25.926 16.5045 26.6287 16.5045Z" fill="white"/>
</svg>
