<svg width="42" height="42" viewBox="0 0 42 42" fill="none" xmlns="http://www.w3.org/2000/svg">
<rect x="0.162109" width="41.8378" height="41.8378" rx="5" fill="#8F8F8F"/>
<path fill-rule="evenodd" clip-rule="evenodd" d="M10.4363 20.4576C16.5196 17.7515 20.5761 15.9675 22.6058 15.1055C28.401 12.6444 29.6051 12.2169 30.39 12.2028C30.5626 12.1997 30.9486 12.2434 31.1986 12.4505C31.4097 12.6254 31.4678 12.8617 31.4956 13.0275C31.5234 13.1933 31.558 13.5711 31.5305 13.8663C31.2165 17.2353 29.8576 25.411 29.1663 29.1844C28.8738 30.7811 28.2978 31.3164 27.7402 31.3688C26.5284 31.4827 25.6082 30.5511 24.4345 29.7656C22.5979 28.5363 21.5603 27.7711 19.7775 26.5716C17.7173 25.1854 19.0529 24.4235 20.227 23.1783C20.5343 22.8524 25.8736 17.8938 25.9769 17.444C25.9898 17.3877 26.0018 17.178 25.8798 17.0673C25.7578 16.9566 25.5777 16.9944 25.4478 17.0246C25.2636 17.0672 22.3295 19.0473 16.6457 22.9647C15.8129 23.5486 15.0586 23.8331 14.3827 23.8182C13.6376 23.8018 12.2044 23.3881 11.1389 23.0344C9.83211 22.6007 8.79347 22.3714 8.88391 21.6348C8.93102 21.2511 9.44849 20.8587 10.4363 20.4576Z" fill="white"/>
</svg>
