<svg width="157" height="50" viewBox="0 0 157 50" fill="none" xmlns="http://www.w3.org/2000/svg">
<g clip-path="url(#clip0_45_27)">
<path d="M104.143 18.04C103.947 18.8031 103.328 19.5346 102.285 20.2345C101.83 20.5029 101.397 20.8081 100.989 21.1555C100.581 21.5028 100.183 21.8607 99.7908 22.229C99.4293 22.5974 99.1299 22.9605 98.8872 23.3237C98.6445 23.6921 98.3399 24.0183 97.9836 24.3183C97.6222 24.6867 97.2504 25.0182 96.858 25.3129C96.4656 25.6129 96.0938 25.8971 95.7324 26.1602C96.1558 26.8233 96.5895 27.4653 97.0284 28.0758C97.4673 28.6915 97.8648 29.3283 98.2263 29.9967C98.6806 30.8597 98.975 31.7649 99.104 32.7122C99.2331 33.6594 99.2693 34.6646 99.2021 35.7276C99.135 36.4907 99.0317 37.238 98.882 37.9695C98.7374 38.701 98.4328 39.4167 97.9784 40.1114C97.3898 41.0744 96.6411 41.8375 95.7272 42.4059C94.8133 42.969 93.8685 43.4847 92.8926 43.9531C91.6534 44.6162 90.4039 45.2582 89.1544 45.8739C87.8997 46.4897 86.6502 47.0948 85.4162 47.6948C85.2871 47.7579 85.1477 47.8106 84.9979 47.8421C84.8534 47.8737 84.6985 47.9053 84.5332 47.9421C84.5332 47.9106 84.5023 47.7948 84.4351 47.5948C84.7914 47.3264 85.1373 47.0685 85.4626 46.8212C85.7879 46.5739 86.1287 46.316 86.4901 46.0476L86.392 45.8476C86.1287 46.0108 85.886 46.1949 85.6588 46.3949C85.4317 46.5949 85.1838 46.6949 84.9256 46.6949C84.6623 46.6633 84.4042 46.7107 84.1408 46.8422C83.8775 46.9738 83.6193 47.1159 83.3612 47.2633C83.0978 47.4106 82.8397 47.5211 82.5764 47.5895C82.313 47.6527 82.0549 47.6053 81.7967 47.4422C81.5024 47.2738 81.2029 47.2001 80.8931 47.2159C80.5833 47.2317 80.2684 47.2264 79.9379 47.1896C79.7727 47.1896 79.6384 47.1422 79.5197 47.0422C79.4061 46.9422 79.3183 46.8265 79.2512 46.6949C79.1221 46.4949 78.9724 46.2949 78.8123 46.095C78.6471 45.895 78.5025 45.695 78.3734 45.495C78.2444 45.295 78.1463 45.0687 78.0791 44.8214C78.0172 44.5741 78.0172 44.3004 78.0791 44.0004C78.1101 43.832 78.1514 43.6952 78.2031 43.5794C78.2547 43.4637 78.3115 43.3216 78.3734 43.1584C78.0172 42.7269 77.8674 42.4269 77.9346 42.2585C78.0017 42.0901 78.358 41.927 79.0085 41.7586C81.9103 41.0271 84.7604 39.864 87.5641 38.2695C88.4418 37.7695 89.3093 37.1748 90.1561 36.4749C91.0028 35.7803 91.8031 35.0645 92.5518 34.333C92.9081 33.9647 93.1456 33.5121 93.2592 32.9595C93.3728 32.4122 93.3625 31.8859 93.2334 31.3912C93.1043 30.8913 92.8668 30.4598 92.526 30.0966C92.1852 29.7335 91.7205 29.5651 91.1319 29.5967C91.0648 29.5967 90.9822 29.5809 90.8892 29.5493C90.7963 29.5178 90.693 29.502 90.5949 29.502C90.4659 29.4704 90.3264 29.4493 90.1767 29.4493C90.027 29.4493 89.8824 29.4441 89.7378 29.423C89.5933 29.4072 89.459 29.3494 89.3454 29.2494C89.2318 29.1494 89.1595 29.002 89.1234 28.802C89.0563 28.5021 88.9995 28.2126 88.953 27.9284C88.9014 27.6495 88.8446 27.3548 88.7826 27.0549C88.7465 26.9233 88.7155 26.797 88.6845 26.6812C88.6535 26.5654 88.6174 26.4549 88.5864 26.3549C88.2611 25.855 88.0391 25.4392 87.9255 25.1077C87.8119 24.7761 87.8016 24.4657 87.8997 24.1867C87.9978 23.9026 88.1837 23.6078 88.4625 23.2921C88.7413 22.9763 89.1079 22.5869 89.5623 22.1185C90.4091 21.287 91.2971 20.5345 92.2265 19.8504C93.1559 19.1715 94.0595 18.4452 94.9424 17.6822C96.0525 16.6191 97.142 15.5613 98.2211 14.5193C99.2951 13.4721 100.374 12.4196 101.448 11.3565C101.417 11.2881 101.35 11.2092 101.252 11.1092C100.927 11.1776 100.581 11.2407 100.224 11.3091C99.863 11.3776 99.5377 11.4775 99.2486 11.6091C98.5619 11.9091 97.7512 12.288 96.8012 12.7564C95.8563 13.2247 94.8856 13.7089 93.8943 14.2246C92.8978 14.7404 91.9271 15.2614 90.9822 15.7929C90.0373 16.3244 89.237 16.7875 88.5864 17.1875C88.3231 17.3559 88.1785 17.4138 88.1475 17.3611C88.1166 17.3138 88.1062 17.2296 88.1217 17.1138C88.1372 16.998 88.1217 16.898 88.0753 16.8138C88.0236 16.7296 87.8532 16.7402 87.5641 16.8401C87.497 16.6086 87.5073 16.4244 87.5899 16.2928C87.6725 16.1613 87.7758 16.0455 87.91 15.9455C88.0391 15.8455 88.1785 15.7455 88.3231 15.6455C88.4677 15.5455 88.5761 15.414 88.6432 15.2456C87.8945 15.5455 87.6467 15.3298 87.91 14.5983C87.941 14.4667 87.9152 14.3562 87.8377 14.2773C87.7551 14.193 87.6828 14.1036 87.6157 14.0036C87.4505 13.772 87.3008 13.5563 87.151 13.3563C87.0013 13.1563 86.8464 12.9563 86.6863 12.7564C86.6192 12.6564 86.6192 12.488 86.6863 12.2564C86.9497 11.6249 87.3111 11.1092 87.7861 10.7092C88.2611 10.3092 88.7723 9.93034 89.3248 9.56196C90.4297 8.79888 91.6121 8.17789 92.8719 7.69373C94.1266 7.20957 95.3761 6.78857 96.6102 6.42018C97.2607 6.25178 97.9062 6.07811 98.5412 5.89392C99.1763 5.70973 99.8062 5.58869 100.426 5.52028C101.5 5.38871 102.486 5.47291 103.384 5.76762C104.283 6.06759 105.006 6.64648 105.558 7.50954C105.852 7.97265 106.162 8.42524 106.488 8.85677C106.813 9.2883 107.107 9.75141 107.365 10.2514C107.66 10.7513 107.82 11.3039 107.856 11.9196C107.887 12.5353 107.814 13.1511 107.634 13.7615C107.453 14.3772 107.185 14.9667 106.828 15.5298C106.467 16.0929 106.028 16.5928 105.507 17.0243C105.31 17.1559 105.109 17.298 104.897 17.4506C104.686 17.598 104.433 17.7927 104.138 18.0242" fill="#D3D500"/>
<path d="M113.019 45.8267C113.298 45.4793 113.561 45.1215 113.825 44.7531C113.758 44.6531 113.68 44.5689 113.582 44.5057C113.128 44.8373 112.699 45.153 112.312 45.453C111.919 45.753 111.527 46.0687 111.14 46.4003C110.68 46.7318 110.262 47.0739 109.87 47.4212C109.477 47.7686 109.054 48.0633 108.6 48.2948C107.686 48.7263 106.798 48.8526 105.935 48.6685C105.073 48.4843 104.216 48.0948 103.369 47.5002C102.811 47.0686 102.233 46.6581 101.634 46.2792C101.03 45.8951 100.452 45.4898 99.8994 45.0583C99.0164 44.3952 98.4072 43.6058 98.0664 42.6901C97.7256 41.7744 97.6327 40.7693 97.7979 39.6747C98.4485 35.0909 99.9149 30.7861 102.197 26.7655C103.044 25.3025 103.911 23.8605 104.789 22.4291C105.667 21.0029 106.581 19.5873 107.526 18.1927C108.212 17.1612 108.966 16.1719 109.797 15.2246C110.629 14.2773 111.419 13.3248 112.167 12.3565C113.112 11.1619 114.026 9.95674 114.904 8.74108C115.787 7.53068 116.696 6.2887 117.64 5.02568C117.511 5.02568 117.403 5.02042 117.325 4.99937C117.243 4.98358 117.119 4.97305 116.959 4.97305C117.124 4.80465 117.258 4.6573 117.377 4.52573C117.491 4.39417 117.599 4.24681 117.697 4.07841C118.053 3.51531 118.415 2.968 118.771 2.43121C119.127 1.89969 119.489 1.35238 119.845 0.789282C119.912 0.757707 119.959 0.720868 119.99 0.689293L120.134 0.54194C120.3 0.673505 120.454 0.789282 120.599 0.889272C120.749 0.989261 120.898 1.12083 121.064 1.28923C121.224 1.02084 121.487 0.589303 121.843 -0.00537109C122.071 0.226184 122.298 0.426162 122.53 0.594566C122.757 0.762969 122.969 0.941898 123.165 1.14188C123.423 1.47342 123.671 1.69971 123.898 1.81549C124.126 1.93127 124.42 1.82602 124.776 1.49447C124.843 1.42606 124.921 1.40501 125.019 1.42079C125.117 1.43658 125.246 1.44711 125.411 1.44711C125.282 1.64709 125.184 1.82075 125.117 1.96811C125.05 2.11546 124.988 2.27334 124.921 2.44174C124.89 2.54173 124.879 2.65224 124.895 2.76802C124.91 2.8838 124.905 2.99431 124.869 3.08904C124.967 3.05746 125.091 3.04694 125.236 3.06273C125.385 3.07852 125.473 3.0522 125.504 2.98905C125.731 2.65751 125.943 2.51542 126.139 2.56804C126.335 2.61541 126.516 2.7575 126.676 2.98905C126.841 2.88906 127.017 2.78381 127.213 2.66803C127.409 2.55225 127.606 2.42595 127.802 2.29439C127.869 2.42595 127.931 2.52594 127.998 2.59436C126.888 3.88896 125.788 5.19408 124.699 6.50447C123.604 7.81486 122.525 9.13577 121.446 10.4672C120.336 11.7986 119.231 13.109 118.121 14.4036C117.01 15.6982 115.89 17.0455 114.744 18.4401C115.363 18.6716 115.854 18.84 116.21 18.94C116.437 19.0716 116.68 19.1716 116.943 19.24C117.207 19.3084 117.284 19.5557 117.186 19.9873C117.186 20.0188 117.217 20.0609 117.284 20.1136C117.351 20.1609 117.413 20.1872 117.48 20.1872C118.425 20.4556 119.2 20.9082 119.804 21.5555C120.408 22.2028 120.955 22.8606 121.441 23.5237C122.551 25.0183 123.057 26.7444 122.959 28.7074C122.891 30.6019 122.618 32.3965 122.127 34.091C121.637 35.7856 120.873 37.396 119.83 38.9274C119.045 40.0904 118.208 41.2113 117.31 42.2902C116.412 43.369 115.523 44.4426 114.646 45.5056C114.419 45.8056 114.15 46.0582 113.84 46.2792C113.53 46.495 113.231 46.7213 112.937 46.9529C112.87 47.0213 112.771 47.0528 112.642 47.0528C112.513 47.0528 112.379 47.0686 112.25 47.1002L112.152 46.9002C112.446 46.5318 112.73 46.1792 113.009 45.8267M109.178 39.2747C109.209 39.3063 109.24 39.3221 109.276 39.3221C109.209 39.3536 109.152 39.38 109.106 39.3957C109.054 39.4115 108.997 39.4536 108.935 39.522C108.347 39.6905 107.763 39.8483 107.174 39.9957C106.586 40.143 105.987 40.3009 105.367 40.4693C105.269 40.5009 105.156 40.5746 105.027 40.6956C104.897 40.8114 104.83 40.9377 104.83 41.0693C104.763 41.7323 104.799 42.1218 104.928 42.2428C105.057 42.3586 105.434 42.3165 106.054 42.1165C106.121 42.0849 106.183 42.0692 106.25 42.0692C107.36 41.8008 108.346 41.3692 109.209 40.7746C110.071 40.1746 110.882 39.4431 111.63 38.58C111.692 38.4485 111.728 38.3064 111.728 38.159C111.728 38.0117 111.78 37.9012 111.873 37.838C112.038 37.6065 112.25 37.4117 112.508 37.2644C112.766 37.117 112.932 36.9223 112.999 36.6908C113.489 35.7277 113.954 34.7647 114.393 33.8016C114.832 32.8385 115.281 31.8755 115.74 30.9124C116.035 30.2809 116.231 29.6073 116.329 28.8916C116.427 28.1759 116.427 27.4707 116.329 26.7708C116.231 26.0761 116.009 25.392 115.668 24.7289C115.327 24.0658 114.863 23.4501 114.274 22.887C113.783 22.4554 113.417 22.2554 113.174 22.287C112.932 22.3186 112.663 22.6554 112.369 23.2817C112.074 23.8448 111.806 24.4131 111.563 24.9762C111.321 25.5393 111.052 26.0919 110.758 26.6181C110.463 27.0865 110.148 27.5391 109.803 27.9864C109.462 28.4337 109.157 28.9074 108.899 29.4073C108.476 30.1704 108.093 30.9387 107.748 31.7018C107.407 32.4649 107.071 33.2332 106.746 33.9963C106.452 34.7594 106.183 35.5172 105.94 36.2645C105.698 37.0118 105.445 37.7696 105.181 38.5327C105.15 38.6327 105.156 38.7484 105.207 38.88C105.259 39.0116 105.295 39.1484 105.331 39.28C105.166 39.4484 105.006 39.6957 104.841 40.0273C104.841 40.0957 104.908 40.1904 105.037 40.3272C105.687 40.1588 106.359 39.9852 107.04 39.8062C107.722 39.622 108.439 39.4484 109.193 39.2852M108.248 27.1128C108.181 27.0813 108.135 27.0444 108.104 27.0128C108.073 26.9813 108.021 26.9655 107.959 26.9655C107.732 27.397 107.52 27.8285 107.324 28.2601C107.128 28.6916 106.932 29.1231 106.736 29.5547C106.834 29.5547 106.88 29.602 106.88 29.702C107.138 29.2705 107.376 28.839 107.587 28.4074C107.799 27.9759 108.021 27.5444 108.248 27.1128ZM115.291 43.6111C116.169 42.6165 117.057 41.6166 117.955 40.6219C118.854 39.6273 119.561 38.4801 120.083 37.1855C119.267 38.2485 118.461 39.3221 117.661 40.4009C116.861 41.4797 116.071 42.5533 115.291 43.6164" fill="#D3D500"/>
<path d="M157 5.33088C156.153 6.29393 155.255 7.25699 154.31 8.22005C154.604 8.18847 154.857 8.14637 155.069 8.09374C155.281 8.04638 155.482 8.02007 155.678 8.02007C155.808 8.02007 156.004 8.05164 156.267 8.12006C156.2 8.22005 156.153 8.34635 156.122 8.4937C156.092 8.64106 156.04 8.75157 155.978 8.81998C155.715 8.91997 155.456 9.01996 155.193 9.11995C154.93 9.21994 154.672 9.31993 154.413 9.41992C153.531 9.7883 152.668 10.1619 151.821 10.5409C150.975 10.925 150.092 11.2618 149.183 11.5618C147.975 11.9302 146.777 12.267 145.589 12.5827C144.397 12.8985 143.183 13.2248 141.944 13.5563C140.705 13.8563 139.466 14.0563 138.227 14.1563C137.509 14.2563 136.998 14.5404 136.688 15.0035C136.378 15.4719 136.094 15.9508 135.831 16.4508C135.438 17.2138 135.072 18.0138 134.731 18.8452C134.39 19.6767 134.039 20.4872 133.678 21.2871C133.611 21.4871 133.533 21.6923 133.435 21.9081C133.337 22.1238 133.239 22.3501 133.141 22.5817C133.791 22.4501 134.426 22.3238 135.051 22.208C135.671 22.0923 136.306 21.9818 136.956 21.8818C138.258 21.7186 139.533 21.7344 140.772 21.9291C142.011 22.1291 143.152 22.708 144.195 23.6763C144.748 24.2078 145.249 24.7815 145.688 25.3972C146.126 26.0129 146.545 26.6339 146.937 27.2654C147.489 28.0969 147.897 28.9758 148.161 29.9072C148.424 30.8387 148.569 31.8018 148.6 32.7964C148.6 33.4595 148.532 34.0752 148.403 34.6383C148.274 35.2014 148.078 35.7856 147.815 36.3802C147.36 37.4433 146.72 38.3169 145.91 38.9958C145.094 39.6746 144.247 40.3167 143.369 40.9166C142.424 41.5165 141.469 42.0639 140.509 42.5638C139.548 43.0637 138.593 43.5584 137.648 44.0584C136.048 44.9214 134.463 45.7687 132.883 46.6002C131.303 47.4317 129.712 48.2421 128.117 49.0421C127.792 49.2105 127.44 49.3999 127.064 49.6157C126.687 49.8315 126.387 49.8893 126.16 49.7894C125.638 49.521 125.163 49.4473 124.74 49.5631C124.317 49.6788 123.878 49.8209 123.418 49.9841C123.351 50.0156 123.238 49.9841 123.077 49.8841C122.912 49.7841 122.835 49.6999 122.835 49.6367C122.804 49.4368 122.804 49.2473 122.835 49.0631C122.866 48.8789 122.917 48.6737 122.979 48.4421C122.752 48.4106 122.499 48.3948 122.22 48.3948C121.942 48.3948 121.683 48.3632 121.441 48.2948C121.198 48.2264 120.976 48.1106 120.78 47.9474C120.584 47.779 120.439 47.5001 120.341 47.1002C120.145 46.1371 120.651 45.4056 121.854 44.9057L120.682 42.5112C121.105 42.3428 121.544 42.1533 122.004 41.9375C122.463 41.7218 122.933 41.5323 123.423 41.3639C124.306 41.0324 125.184 40.7166 126.062 40.4167C126.94 40.1167 127.807 39.7851 128.654 39.4168C129.175 39.1852 129.681 38.9379 130.172 38.6695C130.662 38.4063 131.132 38.138 131.592 37.8748C132.18 37.5433 132.764 37.2275 133.352 36.9276C133.941 36.6276 134.493 36.2645 135.015 35.8329C136.218 34.8699 137.452 33.9489 138.707 33.0648C139.961 32.1859 141.03 31.0966 141.908 29.802C142.166 29.4389 142.414 29.0652 142.641 28.6811C142.868 28.2969 142.853 27.9232 142.595 27.5601C142.331 27.197 141.965 26.9812 141.495 26.9128C141.02 26.8444 140.555 26.8655 140.101 26.9602C139.156 27.1286 138.227 27.2759 137.313 27.4075C136.399 27.5391 135.5 27.7548 134.623 28.0548C133.709 28.3232 132.821 28.6547 131.958 29.0494C131.096 29.4494 130.368 30.0809 129.785 30.944C129.686 31.044 129.573 31.1282 129.444 31.1913C129.315 31.2597 129.175 31.3334 129.026 31.4176C128.881 31.5018 128.747 31.5913 128.633 31.6913C128.52 31.7913 128.447 31.9386 128.411 32.1386C128.38 32.1702 128.329 32.1859 128.267 32.1859H128.122C128.024 32.0544 127.9 31.9544 127.755 31.886C127.611 31.8176 127.461 31.7597 127.317 31.7123C127.172 31.6649 127.033 31.586 126.903 31.486C126.774 31.386 126.676 31.2229 126.609 30.9861C126.511 30.623 126.33 30.2861 126.072 29.9914C125.809 29.6915 125.566 29.3757 125.339 29.0442C124.787 28.3127 124.523 27.5654 124.554 26.8023C124.585 26.0392 124.797 25.2919 125.189 24.5604C125.778 23.4974 126.403 22.4659 127.069 21.4713C127.735 20.4767 128.396 19.461 129.051 18.4295C129.573 17.6664 130.094 16.8928 130.616 16.114C131.137 15.3351 131.659 14.5615 132.18 13.7984C132.346 13.5353 132.423 13.3195 132.423 13.1511C132.423 12.9827 132.242 12.8511 131.886 12.7511C131.432 12.6196 131.086 12.3775 130.859 12.0302C130.631 11.6828 130.435 11.2934 130.27 10.8566C130.105 10.3935 130.182 10.0356 130.492 9.78304C130.802 9.5357 131.086 9.32519 131.349 9.16205C132.067 8.79893 132.784 8.46213 133.502 8.16216C134.22 7.86219 134.953 7.58327 135.702 7.31488C137.855 6.58338 139.982 5.85188 142.084 5.12037C144.185 4.38887 146.312 3.67316 148.465 2.97849C149.183 2.7101 149.927 2.51538 150.691 2.37856C151.455 2.24699 152.214 2.09964 152.963 1.93124C153.128 1.89966 153.272 1.85756 153.401 1.80493C153.531 1.75757 153.665 1.69968 153.794 1.63127C154.217 1.43129 154.615 1.3313 154.992 1.3313C155.369 1.3313 155.782 1.4155 156.241 1.57864C156.665 1.74704 156.887 1.95229 156.902 2.19963C156.918 2.44697 156.876 2.74168 156.778 3.07322C156.582 3.57317 156.453 4.07312 156.386 4.5678C156.386 4.63621 156.448 4.72568 156.582 4.84146C156.711 4.95723 156.861 5.11511 157.021 5.31509M148.589 3.48897C148.522 3.3574 148.491 3.25741 148.491 3.189C147.841 3.45739 147.185 3.68895 146.534 3.88892C145.884 4.0889 145.228 4.30467 144.577 4.53622L144.676 4.7362C145.326 4.50465 145.977 4.28888 146.632 4.0889C147.283 3.88892 147.934 3.68895 148.589 3.48897Z" fill="#D3D500"/>
<path d="M0 15.6353H3.64012V35.8647H9.62436V39.238H0V15.6353Z" fill="#545F71"/>
<path d="M12.4021 38.0224C11.4521 36.9909 10.9771 35.5279 10.9771 33.6386V21.2294C10.9771 19.3402 11.4521 17.8824 12.4021 16.8457C13.3522 15.8142 14.7204 15.2932 16.5069 15.2932C18.2934 15.2932 19.6617 15.8089 20.6066 16.8457C21.5566 17.8772 22.0265 19.3402 22.0265 21.2294V33.6386C22.0265 35.5279 21.5515 36.9857 20.6066 38.0224C19.6565 39.0591 18.2934 39.5749 16.5069 39.5749C14.7204 39.5749 13.3522 39.0591 12.4021 38.0224ZM18.3915 33.8755V20.9979C18.3915 19.4454 17.7616 18.6718 16.5069 18.6718C15.2522 18.6718 14.6223 19.4454 14.6223 20.9979V33.8755C14.6223 35.4279 15.2522 36.2015 16.5069 36.2015C17.7616 36.2015 18.3915 35.4279 18.3915 33.8755Z" fill="#545F71"/>
<path d="M27.1893 19.0086H23.3892V15.6353H34.6348V19.0086H30.8295V39.238H27.1893V19.0086Z" fill="#545F71"/>
<path d="M36.3857 15.6353H46.3096V19.0086H40.0259V25.2448H45.0239V28.6181H40.0259V35.8647H46.3096V39.238H36.3857V15.6353Z" fill="#545F71"/>
<path d="M48.395 15.6353H53.7855C55.6598 15.6353 57.028 16.0773 57.8851 16.9667C58.7474 17.8561 59.176 19.2191 59.176 21.061V22.5082C59.176 24.9606 58.3808 26.5078 56.7957 27.1604V27.2288C57.6786 27.4972 58.3034 28.0497 58.6648 28.8812C59.0262 29.7127 59.2121 30.8284 59.2121 32.2177V36.3647C59.2121 37.0383 59.2328 37.5856 59.2792 38.0013C59.3257 38.4171 59.4341 38.8276 59.6097 39.2328H55.9076C55.7734 38.8486 55.6856 38.4907 55.6443 38.1539C55.5978 37.8171 55.5771 37.2119 55.5771 36.3331V32.0177C55.5771 30.9389 55.4068 30.1864 55.066 29.7601C54.7252 29.3338 54.1314 29.118 53.295 29.118H52.0403V39.2328H48.4002V15.6353H48.395ZM53.3569 25.75C54.085 25.75 54.6323 25.5605 54.9937 25.1764C55.3603 24.7922 55.541 24.1554 55.541 23.2555V21.4346C55.541 20.5821 55.3913 19.9611 55.097 19.5822C54.7975 19.198 54.3328 19.0086 53.6925 19.0086H52.0403V25.75H53.3621H53.3569Z" fill="#545F71"/>
<path d="M65.3667 15.6353H61.7266V39.238H65.3667V15.6353Z" fill="#545F71"/>
<path d="M70.8872 15.6353H75.8181L79.5873 39.238H75.9472L75.2863 34.5491V34.6175H71.1505L70.4896 39.238H67.1128L70.882 15.6353H70.8872ZM74.8577 31.4125L73.2364 19.7453H73.1693L71.579 31.4125H74.8526H74.8577Z" fill="#545F71"/>
<path d="M81.9722 38.0382C81.0686 37.0172 80.6143 35.549 80.6143 33.6387V32.2914H84.053V33.907C84.053 35.4385 84.6829 36.2015 85.9376 36.2015C86.5572 36.2015 87.0219 36.0174 87.342 35.6437C87.6621 35.2753 87.8222 34.6701 87.8222 33.8386C87.8222 32.8493 87.6002 31.9809 87.1613 31.2284C86.7173 30.4758 85.9066 29.5707 84.7139 28.5129C83.2166 27.1656 82.1684 25.9447 81.5695 24.8554C80.9757 23.766 80.6762 22.5346 80.6762 21.161C80.6762 19.2981 81.1409 17.8508 82.0651 16.8299C82.9894 15.8089 84.337 15.2932 86.1028 15.2932C87.8687 15.2932 89.1647 15.8037 90.0527 16.8299C90.946 17.8508 91.3952 19.3191 91.3952 21.2294V22.2083H87.9564V20.9926C87.9564 20.1822 87.8015 19.5928 87.4917 19.2244C87.182 18.856 86.7328 18.6665 86.1338 18.6665C84.9204 18.6665 84.3163 19.4191 84.3163 20.9242C84.3163 21.7767 84.5435 22.5767 84.9927 23.3187C85.4471 24.0607 86.2681 24.9606 87.4556 26.0131C88.9788 27.3604 90.0218 28.5866 90.6 29.6864C91.1732 30.7863 91.4623 32.0809 91.4623 33.565C91.4623 35.4964 90.9925 36.9804 90.0579 38.0171C89.1233 39.0539 87.7602 39.5696 85.9737 39.5696C84.1872 39.5696 82.8758 39.0591 81.9722 38.0329" fill="#545F71"/>
</g>
<defs>
<clipPath id="clip0_45_27">
<rect width="157" height="50" fill="white"/>
</clipPath>
</defs>
</svg>
